. 
 
http://www.torrenting.com          :     Once & For all ;)


               www . Torrenting . Com 

(((((((((((((= Enjoy No RAR releases =))))))))))))))))))))


...................................NFO:....................................

.[IMG]http://lookpic.com/O/i2/1248/fTwPCzt.jpeg[/IMG]

[IMG]http://lookpic.com/O/i2/782/T1kjlQsX.png[/IMG]
 
http://www.imdb.com/title/tt1232829/

Sources: Video 720p UnKnowN/ Audio UnKnowN

Format                           : AVI
Format/Info                      : Audio Video Interleave
File size                        : 1.44 GiB
Duration                         : 1h 43mn
Overall bit rate                 : 2 003 Kbps
Writing library                  : VirtualDub build 33848/release

Video
ID                               : 0
Format                           : MPEG-4 Visual
Format profile                   : Advanced Simple@L5
Format settings, BVOP            : Yes
Format settings, QPel            : No
Format settings, GMC             : No warppoints
Format settings, Matrix          : Default (H.263)
Muxing mode                      : Packed bitstream
Codec ID                         : XVID
Codec ID/Hint                    : XviD
Duration                         : 1h 43mn
Bit rate                         : 1 800 Kbps
Width                            : 720 pixels
Height                           : 304 pixels
Display aspect ratio             : 2.35:1
Frame rate                       : 29.639 fps
Color space                      : YUV
Chroma subsampling               : 4:2:0
Bit depth                        : 8 bits
Scan type                        : Progressive
Bits/(Pixel*Frame)               : 0.277
Stream size                      : 1.30 GiB (90%)
Writing library                  : XviD 1.2.1 (UTC 2008-12-04)

Audio
ID                               : 1
Format                           : MPEG Audio
Format version                   : Version 1
Format profile                   : Layer 3
Mode                             : Joint stereo
Codec ID                         : 55
Codec ID/Hint                    : MP3
Duration                         : 1h 43mn
Bit rate mode                    : Constant
Bit rate                         : 192 Kbps
Channel(s)                       : 2 channels
Sampling rate                    : 48.0 KHz
Stream size                      : 142 MiB (10%)
Alignment                        : Split accross interleaves
Interleave, duration             : 34 ms (1.00 video frame)
Interleave, preload duration     : 500 ms
Writing library                  : LAME3.98.2

Workdone:
First off we used UnKnowN's 720p source and sync it with the Line Audio which was not easy took us 6 to 8 hours. If it goes out of sync for a sec Im sorry. There a spot that appears not to have audio when he is telling his boss the miranda rights, so it goes out of sync for a few sync's then back into sync. Did the usual filters which I wont bore you with.

Audio: Cleaned it up and did some audio enhancements

[IMG]http://lookpic.com/O/i2/535/S5LqyKjs.png[/IMG]

[IMG]http://lookpic.com/O/i2/661/btW2BbOs.jpeg[/IMG]
[IMG]http://lookpic.com/O/i2/1449/xbyBM7cC.jpeg[/IMG]
[IMG]http://lookpic.com/O/i2/734/behMukIp.jpeg[/IMG]
[IMG]http://lookpic.com/O/i2/1924/9aM8AkUK.jpeg[/IMG]